# xmcd
#
# Track frame offsets:
#	150
#	20597
#	37214
#	54130
#	70080
#	84488
#	107460
#	124917
#	140127
#	158443
#	183354
#	203114
#	218351
#	243588
#	282798
#
# Disc length: 3803 seconds
#
# Revision: 0
# Processed by: cddbd v1.5.2PL0 Copyright (c) Steve Scherf et al.
# Submitted via: dBpowerAMP V4.0
#
DISCID=cc0ed90f
DTITLE=Mary Chapin Carpenter - The Very Best of Mary Chapin Carpenter
DYEAR=2008
DGENRE=Country
TTITLE0=Stones in the Road
TTITLE1=Shut Up and Kiss Me
TTITLE2=I Take My Chances
TTITLE3=I Feel Lucky
TTITLE4=Halley Come to Jackson
TTITLE5=I Am a Town
TTITLE6=Quittin' Time
TTITLE7=Down at the Twist and Shout
TTITLE8=He Thinks He'll Keep Her
TTITLE9=Only a Dream
TTITLE10=The Hard Way
TTITLE11=Passionate Kisses
TTITLE12=Late for Your Life
TTITLE13=10,000 Miles
TTITLE14=DATA
EXTD=My name is Dr. Mack Foxx.
EXTT0=
EXTT1=
EXTT2=
EXTT3=
EXTT4=
EXTT5=
EXTT6=
EXTT7=
EXTT8=
EXTT9=
EXTT10=
EXTT11=
EXTT12=
EXTT13=
EXTT14=
PLAYORDER=
